<?xml version="1.0" encoding="UTF-8" standalone="no"?>
<!-- Created with Inkscape (http://www.inkscape.org/) -->
<svg xmlns:dc="http://purl.org/dc/elements/1.1/" xmlns:cc="http://creativecommons.org/ns#" xmlns:rdf="http://www.w3.org/1999/02/22-rdf-syntax-ns#" xmlns:svg="http://www.w3.org/2000/svg" xmlns="http://www.w3.org/2000/svg" xmlns:sodipodi="http://sodipodi.sourceforge.net/DTD/sodipodi-0.dtd" xmlns:inkscape="http://www.inkscape.org/namespaces/inkscape" width="64px" height="64px" id="svg2481" sodipodi:version="0.32" inkscape:version="0.46" sodipodi:docname="Korea_Map.svg" inkscape:output_extension="org.inkscape.output.svg.inkscape">
  <defs id="defs2483">
    <inkscape:perspective sodipodi:type="inkscape:persp3d" inkscape:vp_x="0 : 32 : 1" inkscape:vp_y="0 : 1000 : 0" inkscape:vp_z="64 : 32 : 1" inkscape:persp3d-origin="32 : 21.333333 : 1" id="perspective2489"/>
  </defs>
  <sodipodi:namedview id="base" pagecolor="#ffffff" bordercolor="#666666" borderopacity="1.0" inkscape:pageopacity="0.0" inkscape:pageshadow="2" inkscape:zoom="11" inkscape:cx="35.423424" inkscape:cy="29.195454" inkscape:current-layer="layer1" showgrid="true" inkscape:document-units="px" inkscape:grid-bbox="true" inkscape:window-width="1024" inkscape:window-height="677" inkscape:window-x="-4" inkscape:window-y="-4"/>
  <metadata id="metadata2486">
    <rdf:RDF>
      <cc:Work rdf:about="">
        <dc:format>image/svg+xml</dc:format>
        <dc:type rdf:resource="http://purl.org/dc/dcmitype/StillImage"/>
      </cc:Work>
    </rdf:RDF>
  </metadata>
  <g id="layer1" inkscape:label="Layer 1" inkscape:groupmode="layer">
    <g id="g4897" transform="matrix(0.381228, 0, 0, 0.353871, -64.9407, -25.0739)" style="fill:#0084c9;fill-opacity:1">
      <path id="path4871" d="M 233.66029,246.84935 C 230.28644,246.24409 229.3391,245.15754 230.09867,242.76436 C 230.85286,240.38811 238.0522,237.24243 240.76549,238.1036 C 242.19023,238.55579 242.66029,239.65405 242.66029,242.53061 C 242.66029,247.41733 241.07275,248.17913 233.66029,246.84935 z" style="fill:#0084c9;fill-opacity:1"/>
      <path id="path4867" d="M 234.11254,225.92419 C 232.32967,224.00044 231.66426,222.15792 231.67484,219.17419 C 231.69181,214.38908 233.9422,207.38742 236.71459,203.49396 C 238.80242,200.56186 239.21618,198.0318 237.75547,197.12904 C 237.25782,196.82147 237.09343,194.75982 237.39015,192.54758 C 237.79431,189.53434 237.47977,188.02822 236.1363,186.54371 C 233.61567,183.75843 235.48714,179.57021 239.25235,179.57021 C 241.58599,179.57021 241.82794,179.25575 241.36825,176.82021 C 240.35885,171.47219 237.85849,166.16527 236.02113,165.47115 C 234.99767,165.08451 232.24779,165.00979 229.91029,165.30511 C 227.08946,165.6615 225.66029,165.46008 225.66029,164.70613 C 225.66029,164.08138 225.07357,163.57021 224.35646,163.57021 C 222.36534,163.57021 216.6598,157.23038 216.66403,155.0226 C 216.66608,153.94879 217.56608,151.59683 218.66403,149.79604 C 219.76197,147.99525 220.66029,146.06452 220.66029,145.50555 C 220.66029,144.94657 221.53907,143.26995 222.61313,141.77972 C 223.68718,140.28949 224.85032,137.87514 225.19787,136.41449 C 225.70293,134.29186 225.4113,133.62596 223.74503,133.09711 C 222.59842,132.73319 221.66029,132.01194 221.66029,131.49435 C 221.66029,130.97675 220.8199,131.07809 219.79276,131.71956 C 217.41339,133.20549 214.49572,132.16265 215.28414,130.10806 C 215.60871,129.26224 215.34956,128.57021 214.70826,128.57021 C 214.06696,128.57021 213.82037,128.12021 214.16029,127.57021 C 214.50021,127.02021 213.96001,126.57021 212.95985,126.57021 C 211.9597,126.57021 210.57189,125.6583 209.87584,124.54375 C 208.76724,122.76859 208.95443,122.21445 211.38529,120.07535 C 212.91154,118.73228 215.06454,117.61919 216.16974,117.60181 C 217.27494,117.58443 218.74126,116.67021 219.42822,115.57021 C 220.11518,114.47021 221.36635,113.57021 222.2086,113.57021 C 224.61632,113.57021 231.35097,109.81867 232.00557,108.11281 C 232.38438,107.12564 233.86905,106.57021 236.12891,106.57021 C 238.93887,106.57021 239.66029,106.17979 239.66029,104.6591 C 239.66029,102.82199 244.8742,97.570213 246.69806,97.570213 C 247.18444,97.570213 248.46426,96.623623 249.54212,95.466683 L 251.50185,93.363153 L 253.14867,96.547733 C 254.24928,98.676083 255.29769,99.539593 256.30967,99.151263 C 257.14248,98.831683 259.60118,98.570213 261.77346,98.570213 C 264.63529,98.570213 265.89153,98.088243 266.33475,96.820213 C 267.28492,94.101843 273.88005,87.570213 275.67468,87.570213 C 276.55935,87.570213 278.2492,86.670213 279.42992,85.570213 C 280.61063,84.470213 282.05513,83.570213 282.63992,83.570213 C 283.2247,83.570213 284.24991,82.370233 284.91816,80.903603 C 286.70188,76.988753 290.86008,72.570213 292.76053,72.570213 C 295.13374,72.570213 296.80672,74.980393 297.80568,79.838493 C 300.0681,90.841073 300.19079,89.967703 295.76762,94.346893 C 292.54961,97.532893 291.66029,99.154603 291.66029,101.83675 C 291.66029,109.79728 274.58044,129.57021 267.70413,129.57021 C 265.75411,129.57021 264.36224,130.2586 263.66029,131.57021 C 263.07159,132.67021 261.78076,133.57021 260.79177,133.57021 C 259.80279,133.57021 258.72235,133.84148 258.3908,134.17303 C 257.30062,135.26321 259.63401,139.73346 263.71083,144.36496 C 266.02515,146.99417 268.1764,150.73422 268.80088,153.21426 C 269.39577,155.57677 270.5075,158.02844 271.27139,158.66242 C 272.03529,159.29639 272.66029,160.39242 272.66029,161.09804 C 272.66029,161.80366 274.30054,164.33606 276.30528,166.7256 C 281.58342,173.01683 282.97433,176.95512 283.13733,186.07021 C 283.21601,190.47021 284.07212,196.90317 285.0398,200.36568 C 286.08487,204.10507 286.53362,207.87047 286.14504,209.63963 C 285.37297,213.15485 281.08362,218.57021 279.0714,218.57021 C 278.29529,218.57021 277.66029,218.98446 277.66029,219.49075 C 277.66029,219.99705 276.31297,220.70722 274.66625,221.0689 C 273.01952,221.43058 271.24449,222.47884 270.72172,223.39836 C 269.9087,224.82843 269.46263,224.88112 267.6372,223.76267 C 265.7527,222.60803 265.44162,222.6904 264.977,224.46711 C 264.47338,226.39295 264.3376,226.4071 261.80557,224.79775 C 260.35067,223.87301 258.90136,222.75659 258.5849,222.31681 C 258.26843,221.87704 256.86961,222.54165 255.4764,223.79372 C 250.15552,228.57556 244.54052,230.05044 241.86029,227.37021 C 240.92696,226.43688 240.39362,226.43688 239.46029,227.37021 C 237.71697,229.11353 236.85141,228.87948 234.11254,225.92419 z" style="fill:#0084c9;fill-opacity:1"/>
    </g>
  </g>
</svg>